<svg xmlns="http://www.w3.org/2000/svg" width="0" height="0" style="display:none">
  <defs>
    <symbol id="i-bus" viewBox="0 0 24 24" fill="none" stroke="currentColor" stroke-width="1.6" stroke-linecap="round" stroke-linejoin="round">
      <rect x="4" y="5" width="16" height="12" rx="2"/>
      <circle cx="8" cy="19" r="1.5"/>
      <circle cx="16" cy="19" r="1.5"/>
      <path d="M4 11h16M9 5v6"/>
    </symbol>
    <symbol id="i-mountain" viewBox="0 0 24 24" fill="none" stroke="currentColor" stroke-width="1.6" stroke-linecap="round" stroke-linejoin="round">
      <path d="M3 19l6-10 4 6 3-4 5 8z"/>
      <circle cx="17" cy="6" r="1.5"/>
    </symbol>
    <symbol id="i-wine" viewBox="0 0 24 24" fill="none" stroke="currentColor" stroke-width="1.6" stroke-linecap="round" stroke-linejoin="round">
      <path d="M12 4v3"/>
      <path d="M14 5l2-1"/>
      <circle cx="9" cy="10" r="2"/>
      <circle cx="13" cy="10" r="2"/>
      <circle cx="11" cy="13" r="2"/>
      <circle cx="15" cy="13" r="2"/>
      <circle cx="13" cy="16" r="2"/>
    </symbol>
    <symbol id="i-plane" viewBox="0 0 24 24" fill="none" stroke="currentColor" stroke-width="1.6" stroke-linecap="round" stroke-linejoin="round">
      <path d="M3 13l8-2 5-7 2 1-3 7 6 3 1 2-7-1-3 5-2-1 1-5z"/>
    </symbol>
    <symbol id="i-uni" viewBox="0 0 24 24" fill="none" stroke="currentColor" stroke-width="1.6" stroke-linecap="round" stroke-linejoin="round">
      <path d="M2 9l10-4 10 4-10 4-10-4z"/>
      <path d="M6 11v4c0 2 3 3 6 3s6-1 6-3v-4"/>
      <path d="M22 9v5"/>
    </symbol>
    <symbol id="i-pin" viewBox="0 0 24 24" fill="none" stroke="currentColor" stroke-width="1.6" stroke-linecap="round" stroke-linejoin="round">
      <path d="M12 22s7-6 7-12a7 7 0 10-14 0c0 6 7 12 7 12z"/>
      <circle cx="12" cy="10" r="2.5"/>
    </symbol>
    <symbol id="i-cal" viewBox="0 0 24 24" fill="none" stroke="currentColor" stroke-width="1.6" stroke-linecap="round" stroke-linejoin="round">
      <rect x="3" y="5" width="18" height="16" rx="2"/>
      <path d="M3 9h18M8 3v4M16 3v4"/>
    </symbol>
    <symbol id="i-search" viewBox="0 0 24 24" fill="none" stroke="currentColor" stroke-width="2" stroke-linecap="round">
      <circle cx="11" cy="11" r="7"/>
      <path d="M21 21l-4-4"/>
    </symbol>
    <symbol id="i-arrow" viewBox="0 0 24 24" fill="none" stroke="currentColor" stroke-width="1.8" stroke-linecap="round" stroke-linejoin="round">
      <path d="M5 12h14M13 6l6 6-6 6"/>
    </symbol>
    <symbol id="i-clock" viewBox="0 0 24 24" fill="none" stroke="currentColor" stroke-width="1.6" stroke-linecap="round" stroke-linejoin="round">
      <circle cx="12" cy="12" r="9"/>
      <path d="M12 7v5l3 2"/>
    </symbol>
  </defs>
</svg>
